<?xml version="1.0" encoding="UTF-8"?>
<!DOCTYPE svg PUBLIC "-//W3C//DTD SVG 1.1//EN" "http://www.w3.org/Graphics/SVG/1.1/DTD/svg11.dtd">
<!-- Creator: CorelDRAW -->
<svg xmlns="http://www.w3.org/2000/svg" xml:space="preserve" width="192.316mm" height="169.84mm" version="1.1" style="shape-rendering:geometricPrecision; text-rendering:geometricPrecision; image-rendering:optimizeQuality; fill-rule:evenodd; clip-rule:evenodd"
viewBox="0 0 5865.39 5179.89"
 xmlns:xlink="http://www.w3.org/1999/xlink"
 xmlns:xodm="http://www.corel.com/coreldraw/odm/2003">
 <defs>
  <style type="text/css">
   <![CDATA[
    .str0 {stroke:#B1629F;stroke-width:32.28;stroke-miterlimit:22.9256}
    .fil2 {fill:none}
    .fil0 {fill:#B1629F;fill-rule:nonzero}
    .fil1 {fill:#B1629F;fill-rule:nonzero}
   ]]>
  </style>
 </defs>
 <g id="Capa_x0020_1">
  <metadata id="CorelCorpID_0Corel-Layer"/>
  <g id="_2147005164432">
   <path class="fil0" d="M4878.11 2281.89l498.78 -11.92c123.41,0 185.11,9.93 185.11,29.79 0,51.64 -250.25,97.32 -750.75,137.03 -318.81,722.9 -478.22,1215.42 -478.22,1477.57 0,182.71 49.71,274.06 149.12,274.06 37.71,0 84.84,-26.81 141.41,-80.43 56.56,-53.62 90.85,-80.43 102.84,-80.43 12,0 17.99,9.93 17.99,29.79 -17.14,71.5 -69.42,131.07 -156.83,178.74 -87.42,47.66 -161.12,71.5 -221.11,71.5 -59.99,0 -107.13,-3.97 -141.41,-11.92 -82.27,-35.75 -123.41,-150.93 -123.41,-345.56 0,-401.17 131.98,-911.57 395.94,-1531.19l-617.06 17.88c-459.36,520.33 -920.44,977.1 -1383.23,1370.33 -692.47,583.88 -1234.11,875.82 -1624.91,875.82 -24,0 -47.99,-1.99 -71.99,-5.96 -527.92,-51.63 -791.89,-365.42 -791.89,-941.35 0,-341.59 92.56,-703.04 277.68,-1084.35 246.82,-508.41 584.49,-942.35 1013,-1301.81 428.51,-359.46 812.45,-539.2 1151.83,-539.2 339.38,0 509.07,144.98 509.07,434.93 0,194.63 -51.42,411.1 -154.26,649.42 -102.84,238.32 -207.4,389.25 -313.67,452.8 -10.28,3.97 -21.43,5.96 -33.43,5.96 -12,0 -18,-3.97 -18,-11.92l169.69 -321.73c116.55,-210.51 174.83,-395.21 174.83,-554.09 0,-158.88 -30,-286.97 -89.99,-384.29 -59.99,-97.31 -155.12,-145.97 -285.39,-145.97 -267.39,0 -587.06,172.78 -959.01,518.34 -371.95,345.56 -654.76,770.56 -848.45,1275 -193.69,504.44 -290.53,897.66 -290.53,1179.67 0,425 186.83,637.5 560.49,637.5 356.52,0 839.88,-266.12 1450.08,-798.36 270.82,-234.35 711.33,-677.22 1321.53,-1328.62 -119.98,7.94 -231.4,21.85 -334.24,41.71 -219.4,47.66 -322.24,39.72 -308.53,-23.83 13.71,-146.96 78.85,-220.44 195.4,-220.44 226.26,31.78 416.51,47.66 570.78,47.66 294.82,-313.79 735.32,-828.15 1321.53,-1543.11 394.23,-480.61 634.2,-720.91 719.9,-720.91 37.71,0 56.56,33.76 56.56,101.29 0,67.52 -15.42,172.78 -46.28,315.77 -30.85,142.99 -65.13,230.37 -102.84,262.15 -78.85,63.55 -152.55,149.94 -221.11,259.17 -68.56,109.23 -166.26,313.78 -293.1,613.67 -126.84,299.88 -234.83,543.17 -323.95,729.85zm411.37 -1453.74l-1316.38 1429.91 303.39 0c71.99,3.97 161.12,5.96 267.39,5.96 99.41,-226.4 347.95,-705.02 745.6,-1435.86z"/>
   <path class="fil1" d="M384.23 4952.01l151.45 0c29.75,0 52.52,4.98 68.3,14.99 15.79,10.01 23.64,22.58 23.64,37.67 0,12.63 -5.51,23.3 -16.52,32.13 -11.08,8.77 -27.67,15.76 -49.83,20.84 27.47,4.41 48.09,11.39 61.85,20.84 13.77,9.49 20.62,21.45 20.62,35.93 0,11.03 -3.89,20.84 -11.69,29.35 -7.79,8.57 -20.82,15.76 -38.95,21.71 -18.13,5.9 -38.75,8.88 -61.79,8.88l-147.09 0 0 -11.39 23.91 0c7.19,0 12.49,-0.92 15.85,-2.72 3.29,-1.8 4.97,-3.85 4.97,-6.16l0 -177.89c0,-4.21 -1.61,-7.39 -4.9,-9.55 -3.29,-2.15 -8.06,-3.23 -14.31,-3.23l-25.52 0 0 -11.39zm86.64 101.93l55 0c16.93,0 30.36,-3.8 40.37,-11.34 10.01,-7.55 15.05,-19.91 15.05,-37.11 0,-10.67 -2.42,-18.99 -7.19,-24.94 -4.77,-5.95 -11.69,-10.32 -20.82,-13.04 -9.07,-2.72 -24.85,-4.11 -47.22,-4.11 -15.85,0 -25.72,0.87 -29.49,2.62 -3.83,1.75 -5.71,4.77 -5.71,9.19l0 78.73zm0 11.39l0 85.61c0,4 1.54,6.98 4.63,8.98 3.09,2 8.6,3.03 16.59,3.03l35.26 0c23.31,0 40.57,-3.95 51.72,-11.8 11.15,-7.85 16.72,-20.07 16.72,-36.7 0,-15.24 -5.77,-27.2 -17.32,-35.98 -11.56,-8.78 -27.47,-13.14 -47.82,-13.14l-59.77 0z"/>
   <path id="_1" class="fil1" d="M682.1 4952.01l230.91 0 5.64 75.14 -13.3 0c-5.24,-23.66 -13.57,-40.19 -24.85,-49.63 -11.35,-9.39 -26.13,-14.11 -44.39,-14.11l-57.02 0c-4.57,0 -8.06,0.92 -10.42,2.82 -2.35,1.9 -3.55,4.82 -3.55,8.73l0 78.99 24.98 0c13.3,0 24.18,-3.64 32.51,-10.98 8.26,-7.29 12.76,-18.53 13.43,-33.67l13.7 0 0 103.16 -13.7 0c-0.67,-17.09 -5.24,-29.31 -13.64,-36.64 -8.46,-7.39 -19.95,-11.09 -34.52,-11.09l-22.76 0 0 88.33c0,3.18 1.41,5.65 4.23,7.34 2.82,1.69 7.52,2.56 14.04,2.56l45.07 0c48.89,0 77.1,-23.81 84.56,-71.44l14.1 0 -4.83 82.84 -240.18 0 0 -11.39 19.95 0c7.79,0 13.23,-1.02 16.39,-3.08 3.16,-2.05 4.77,-5.03 4.77,-8.93l0 -175.99c0,-3.9 -1.42,-6.78 -4.17,-8.67 -2.75,-1.9 -7.12,-2.88 -13.03,-2.88l-23.91 0 0 -11.39z"/>
   <path id="_2" class="fil1" d="M1087.56 4947.4l13.7 0 104.24 203.29c4.17,8.16 12.76,12.27 25.73,12.27l9.06 0 0 11.39 -116.06 0 0 -11.39 9.27 0c12.02,0 20.55,-0.98 25.52,-2.98 3.43,-1.44 5.17,-3.59 5.17,-6.47 0,-1.7 -0.47,-3.49 -1.41,-5.39l-24.05 -47.07 -114.99 0 -13.63 27c-3.56,7.19 -5.37,12.88 -5.37,17.09 0,4.87 3.02,9.08 9,12.57 5.98,3.49 14.64,5.23 26.06,5.23l9.87 0 0 11.39 -105.58 0 0 -11.39c11.28,0 20.21,-1.9 26.8,-5.65 6.58,-3.75 12.63,-10.83 18.13,-21.35l98.53 -188.56zm-5.44 42.75l-51.85 99.21 102.49 0 -50.64 -99.21z"/>
   <path id="_3" class="fil1" d="M1248.82 4952.01l133.79 0 0 11.39 -26.67 0c-7.12,0 -12.16,0.92 -14.98,2.72 -2.89,1.8 -4.3,4.52 -4.3,8.26l0 125.33c0,13.14 1.48,23.04 4.5,29.71 4.5,9.91 12.63,17.81 24.45,23.71 11.89,5.9 27.33,8.88 46.47,8.88 26.47,0 46.61,-5.23 60.52,-15.7 13.9,-10.42 20.82,-24.43 20.82,-41.93l0 -101.98c0,-8.98 -0.81,-15.81 -2.48,-20.48 -1.61,-4.62 -3.96,-8.26 -7.05,-10.88 -3.03,-2.62 -6.92,-4.52 -11.62,-5.75 -4.77,-1.28 -12.56,-1.9 -23.57,-1.9l0 -11.39 109.61 0 0 11.39 -7.86 0c-12.29,0 -21.43,2.52 -27.47,7.6 -5.98,5.03 -9,12.37 -9,21.97l0 109.12c0,23.81 -8.93,42.09 -26.73,54.81 -20.08,14.32 -46.74,21.46 -80.06,21.46 -28.81,0 -51.51,-3.13 -67.97,-9.39 -16.52,-6.26 -28.55,-15.24 -36,-26.95 -5.65,-8.88 -8.46,-20.12 -8.46,-33.62l0 -134.06c0,-3.39 -1.55,-6.06 -4.57,-8.01 -3.09,-1.95 -7.66,-2.92 -13.83,-2.92l-27.54 0 0 -11.39z"/>
   <path id="_4" class="fil1" d="M1584.57 4952.01l235.95 0 5.77 84.07 -13.7 0c-8.93,-49.47 -32.24,-74.22 -69.99,-74.22 -7.59,0 -12.83,1.03 -15.65,3.03 -2.82,2 -4.23,5.29 -4.23,9.91l0 177.63c0,3.59 1.41,6.26 4.16,7.96 2.75,1.69 7.26,2.56 13.57,2.56l29.42 0 0 11.39 -135.4 0 0 -11.39 33.38 0c4.5,0 7.86,-0.87 10.21,-2.56 2.35,-1.7 3.56,-3.95 3.56,-6.78l0 -180.2c0,-3.8 -1.48,-6.67 -4.5,-8.62 -2.96,-1.95 -7.79,-2.93 -14.44,-2.93 -18.88,0 -34.66,6.88 -47.28,20.63 -10.41,11.34 -17.87,29.21 -22.43,53.58l-14.91 0 6.51 -84.07z"/>
   <path id="_5" class="fil1" d="M1832.74 4952.01l127.34 0 0 11.39 -13.97 0c-11.68,0 -19.28,0.72 -22.77,2.1 -3.49,1.39 -5.24,3.34 -5.24,5.85 0,2.62 0.87,4.98 2.75,7.03l73.68 87.51 53.26 -74.57c2.42,-3.28 3.56,-6.93 3.56,-10.83 0,-5.18 -2.21,-9.34 -6.65,-12.42 -4.5,-3.13 -10.81,-4.67 -19.07,-4.67l-13.57 0 0 -11.39 110.82 0 0 11.39c-12.76,0 -22.77,1.7 -30.16,5.08 -7.32,3.44 -14.44,9.8 -21.29,19.25l-67.03 93.82 0 70.26c0,3.75 1.34,6.37 4.09,8.01 3.83,2.1 9.47,3.13 16.93,3.13l24.92 0 0 11.39 -132.98 0 0 -11.39 26.06 0c7.05,0 12.09,-0.98 15.18,-2.92 3.16,-1.95 4.7,-4.67 4.7,-8.21l0 -68.31 -90.47 -107.32c-3.96,-4.62 -8.53,-7.85 -13.77,-9.7 -5.24,-1.85 -14.04,-2.87 -26.33,-3.08l0 -11.39z"/>
   <path id="_6" class="fil1" d="M2369.17 5046.19c16.99,22.02 29.96,38.03 38.96,48.14 9,10.11 18.8,20.02 29.55,29.71 20.62,-19.35 30.9,-35.16 30.9,-47.32 0,-5.54 -2.55,-9.85 -7.66,-13.09 -5.1,-3.18 -12.76,-4.77 -22.97,-4.77l-10.41 0 0 -10.47 109.21 0 0 10.47 -8.26 0c-7.05,0 -12.89,0.82 -17.46,2.41 -4.57,1.59 -8.8,4.05 -12.69,7.39 -3.83,3.39 -8.53,9.55 -14.04,18.53 -11.28,18.06 -23.38,33.26 -36.2,45.57 17.93,13.96 33.58,20.94 46.95,20.94 8.12,0 14.91,-2.46 20.35,-7.34 5.44,-4.88 9.07,-13.35 10.88,-25.3l12.49 0c0,18.74 -5.23,32.95 -15.78,42.7 -10.54,9.7 -23.84,14.58 -39.9,14.58 -9.07,0 -18.27,-1.75 -27.61,-5.29 -9.33,-3.54 -20.62,-9.91 -33.85,-19.19 -15.18,9.29 -28.81,15.65 -40.7,19.19 -11.96,3.54 -24.78,5.29 -38.42,5.29 -24.78,0 -45.34,-6.06 -61.52,-18.17 -16.19,-12.11 -24.31,-27.05 -24.31,-44.75 0,-13.6 5.17,-25.87 15.51,-36.8 10.28,-10.93 28.88,-21.71 55.68,-32.44 -12.43,-19.5 -18.74,-35.77 -18.81,-48.81 0,-14.11 6.72,-26.12 20.15,-36.03 13.43,-9.91 29.89,-14.88 49.43,-14.88 18.6,0 33.31,3.64 44.06,10.98 10.75,7.29 16.12,16.99 16.12,29.1 0,11.55 -5.11,22.07 -15.38,31.61 -10.27,9.55 -28.34,18.89 -54.27,28.02zm-7.46 -11.55c18.81,-6.37 31.7,-13.09 38.75,-20.27 7.05,-7.19 10.54,-15.76 10.54,-25.82 0,-9.44 -3.22,-16.88 -9.67,-22.43 -6.45,-5.49 -14.71,-8.26 -24.79,-8.26 -9.94,0 -18.13,2.62 -24.65,7.9 -6.51,5.29 -9.81,12.27 -9.81,21.04 0,12.73 6.52,28.69 19.61,47.83zm-26.93 23.25c-27.88,11.7 -41.84,25.77 -41.84,42.14 0,12.63 6.45,25.81 19.41,39.67 12.96,13.86 29.08,20.78 48.43,20.78 16.39,0 33.18,-5.03 50.23,-15.14 -12.69,-11.6 -24.11,-23.1 -34.18,-34.44 -10.08,-11.34 -24.12,-29 -42.05,-53.02z"/>
   <path id="_7" class="fil1" d="M2897.75 4969.72l16.12 -22.33 13.3 0 7.26 88.69 -12.89 0c-9.81,-25.46 -21.43,-43.88 -34.79,-55.28 -16.99,-14.47 -36.54,-21.71 -58.5,-21.71 -16.92,0 -32.04,3.64 -45.4,10.93 -13.36,7.29 -23.58,18.22 -30.76,32.74 -7.12,14.58 -10.67,35.11 -10.67,61.54 0,25.61 3.56,45.68 10.67,60.15 7.19,14.47 17,25.1 29.62,31.92 12.56,6.83 27.27,10.27 44.19,10.27 22.9,0 40.63,-4.88 53.13,-14.63 12.49,-9.75 18.74,-22.33 18.74,-37.78l0 -20.73c0,-3.28 -1.68,-5.85 -5.04,-7.65 -3.29,-1.8 -8.8,-2.67 -16.39,-2.67l-24.51 0 0 -10.47 122.1 0 0 10.47 -16.59 0c-7.32,0 -12.63,0.98 -15.78,2.92 -3.16,1.95 -4.7,4.77 -4.7,8.47l0 84.69 -13.03 0c-4.7,-13.14 -9.67,-25.77 -14.77,-37.83 -9.81,12.27 -21.56,21.5 -35.13,27.67 -13.57,6.16 -28.95,9.24 -46.14,9.24 -24.52,0 -47.22,-4.82 -68.17,-14.42 -20.89,-9.6 -37.41,-23.15 -49.57,-40.6 -12.16,-17.5 -18.2,-37.21 -18.2,-59.28 0,-22.12 6.11,-41.93 18.27,-59.43 12.22,-17.55 28.88,-31.46 50.1,-41.78 21.16,-10.31 42.59,-15.45 64.21,-15.45 12.29,0 24.12,1.59 35.26,4.77 11.21,3.18 23.91,9.03 38.08,17.55z"/>
   <path id="_8" class="fil1" d="M2997.22 4952.01l135 0 0 11.39 -32.24 0c-5.11,0 -8.86,1.03 -11.28,3.08 -2.42,2.05 -3.63,5.29 -3.63,9.7l0 175.22c0,4.21 1.54,7.19 4.63,8.93 3.1,1.74 9.27,2.62 18.54,2.62l40.84 0c21.76,0 39.56,-5.54 53.32,-16.58 13.84,-11.09 23.84,-30.28 30.16,-57.64l13.7 0 -6.85 85.61 -242.19 0 0 -11.39 23.84 0c8.19,0 13.9,-1.18 17.19,-3.54 3.29,-2.36 4.91,-6.11 4.91,-11.34l0 -173.42c0,-3.7 -1.42,-6.47 -4.17,-8.37 -2.75,-1.9 -6.78,-2.88 -12.22,-2.88l-29.55 0 0 -11.39z"/>
   <path id="_9" class="fil1" d="M3394.16 4947.4l13.7 0 104.24 203.29c4.17,8.16 12.76,12.27 25.73,12.27l9.06 0 0 11.39 -116.06 0 0 -11.39 9.27 0c12.02,0 20.55,-0.98 25.52,-2.98 3.43,-1.44 5.17,-3.59 5.17,-6.47 0,-1.7 -0.47,-3.49 -1.41,-5.39l-24.05 -47.07 -114.98 0 -13.63 27c-3.56,7.19 -5.37,12.88 -5.37,17.09 0,4.87 3.02,9.08 9,12.57 5.98,3.49 14.64,5.23 26.06,5.23l9.88 0 0 11.39 -105.58 0 0 -11.39c11.28,0 20.21,-1.9 26.8,-5.65 6.58,-3.75 12.62,-10.83 18.13,-21.35l98.53 -188.56zm-5.44 42.75l-51.85 99.21 102.49 0 -50.64 -99.21z"/>
   <path id="_10" class="fil1" d="M3551.38 4952.01l97.19 0 86.37 175.58 79.46 -175.58 99.67 0 0 11.39 -24.25 0c-8.53,0 -14.31,0.98 -17.26,2.88 -2.96,1.9 -4.43,5.18 -4.43,9.9l0 175.79c0,3.54 1.75,6.21 5.31,8.11 3.56,1.9 9.67,2.87 18.34,2.87l22.3 0 0 11.39 -133.79 0 0 -11.39 24.92 0c7.19,0 12.43,-1.02 15.85,-3.08 3.43,-2.05 5.17,-4.67 5.17,-7.9l0 -188.66 -95.5 211.04 -13.5 0 -103.36 -210.17 0 161.51c0,9.6 1.54,16.78 4.7,21.56 3.16,4.77 7.66,8.42 13.5,10.98 5.78,2.56 15.45,4.11 28.95,4.72l0 11.39 -109.61 0 0 -11.39c17.87,-0.92 29.96,-3.85 36.34,-8.88 6.38,-4.98 9.6,-13.86 9.6,-26.53l0 -153.15c0,-3.85 -1.48,-6.62 -4.5,-8.37 -3.02,-1.74 -8.6,-2.62 -16.79,-2.62l-24.65 0 0 -11.39z"/>
   <path id="_11" class="fil1" d="M4079.08 4947.4c24.52,0 47.56,4.93 68.98,14.78 21.43,9.91 38.21,23.66 50.37,41.37 12.16,17.66 18.2,37.57 18.2,59.74 0,22.12 -6.11,42.14 -18.27,59.95 -12.22,17.86 -29.01,31.72 -50.3,41.73 -21.36,9.96 -43.92,14.94 -67.83,14.94 -23.31,0 -45.21,-4.87 -65.69,-14.68 -20.49,-9.75 -36.94,-23.71 -49.3,-41.93 -12.43,-18.17 -18.61,-38.34 -18.61,-60.46 0,-21.86 5.98,-41.57 18,-59.12 12.03,-17.6 28.41,-31.36 49.3,-41.37 20.89,-9.96 42.58,-14.94 65.15,-14.94zm3.16 11.7c-25.59,0 -46.34,8.11 -62.19,24.33 -15.92,16.27 -23.84,42.7 -23.84,79.4 0,39.78 8.12,67.29 24.38,82.53 16.32,15.24 36.47,22.84 60.45,22.84 16.8,0 31.57,-3.44 44.33,-10.37 12.7,-6.93 22.84,-17.91 30.36,-32.9 7.59,-15.04 11.35,-34.8 11.35,-59.23 0,-26.69 -3.56,-47.47 -10.61,-62.46 -7.12,-14.99 -17.2,-26.13 -30.36,-33.31 -13.1,-7.23 -27.74,-10.83 -43.86,-10.83z"/>
   <path id="_12" class="fil1" d="M4249.21 4952.01l133.79 0 0 11.39 -26.67 0c-7.12,0 -12.16,0.92 -14.98,2.72 -2.89,1.8 -4.3,4.52 -4.3,8.26l0 125.33c0,13.14 1.48,23.04 4.5,29.71 4.5,9.91 12.63,17.81 24.44,23.71 11.89,5.9 27.34,8.88 46.48,8.88 26.47,0 46.61,-5.23 60.52,-15.7 13.9,-10.42 20.82,-24.43 20.82,-41.93l0 -101.98c0,-8.98 -0.81,-15.81 -2.48,-20.48 -1.61,-4.62 -3.96,-8.26 -7.05,-10.88 -3.03,-2.62 -6.92,-4.52 -11.62,-5.75 -4.77,-1.28 -12.56,-1.9 -23.57,-1.9l0 -11.39 109.61 0 0 11.39 -7.86 0c-12.29,0 -21.43,2.52 -27.47,7.6 -5.98,5.03 -9,12.37 -9,21.97l0 109.12c0,23.81 -8.93,42.09 -26.73,54.81 -20.08,14.32 -46.75,21.46 -80.06,21.46 -28.81,0 -51.51,-3.13 -67.97,-9.39 -16.52,-6.26 -28.54,-15.24 -36,-26.95 -5.65,-8.88 -8.46,-20.12 -8.46,-33.62l0 -134.06c0,-3.39 -1.54,-6.06 -4.57,-8.01 -3.09,-1.95 -7.66,-2.92 -13.83,-2.92l-27.54 0 0 -11.39z"/>
   <path id="_13" class="fil1" d="M4577.24 4952.01l150.31 0c29.15,0 51.71,5.08 67.77,15.19 16.05,10.11 24.11,23.4 24.11,39.83 0,9.8 -3.22,18.53 -9.61,26.23 -6.38,7.65 -15.58,13.75 -27.67,18.32 -12.02,4.57 -30.97,7.85 -56.82,9.85 18.87,3.9 31.84,7.75 38.96,11.5 7.12,3.75 12.83,8.62 17.06,14.58 4.3,5.95 9.2,18.06 14.78,36.39 3.96,13.14 8.19,22.12 12.7,27 3.42,3.75 7.05,5.59 11.01,5.59 4.1,0 7.86,-2.31 11.35,-6.88 3.43,-4.57 5.58,-12.63 6.38,-24.23l13.3 0c-2.48,34.08 -18.94,51.12 -49.37,51.12 -9.6,0 -17.86,-1.85 -24.91,-5.54 -6.99,-3.75 -12.29,-9.19 -15.78,-16.37 -2.75,-5.44 -5.84,-19.6 -9.27,-42.55 -1.95,-13.29 -5.1,-22.79 -9.34,-28.38 -4.3,-5.6 -10.95,-10.11 -20.01,-13.5 -9.06,-3.44 -19.88,-5.13 -32.44,-5.13l-23.84 0 0 87.25c0,3.7 1.21,6.31 3.69,7.8 3.09,1.9 7.99,2.87 14.58,2.87l27.67 0 0 11.39 -134.6 0 0 -11.39 28.48 0c6.31,0 10.88,-0.98 13.84,-2.87 2.96,-1.9 4.43,-4.47 4.43,-7.8l0 -177.48c0,-3.8 -1.48,-6.62 -4.5,-8.52 -3.02,-1.9 -7.59,-2.88 -13.77,-2.88l-28.48 0 0 -11.39zm88.66 102.24l34.52 0c23.11,0 41.17,-3.34 54.27,-9.96 13.1,-6.67 19.61,-18.48 19.61,-35.46 0,-11.7 -2.49,-20.94 -7.39,-27.71 -4.91,-6.83 -11.42,-11.45 -19.41,-13.96 -7.99,-2.52 -23.78,-3.75 -47.28,-3.75 -15.52,0 -25.12,0.82 -28.82,2.46 -3.69,1.64 -5.51,4.47 -5.51,8.47l0 79.91z"/>
   <line class="fil2 str0" x1="-0" y1="4792.07" x2="5244.97" y2= "4792.07" />
  </g>
 </g>
</svg>
